<?xml version="1.0" encoding="UTF-8"?>
<svg width="24px" height="24px" viewBox="0 0 24 24" version="1.1" xmlns="http://www.w3.org/2000/svg" xmlns:xlink="http://www.w3.org/1999/xlink">
    <!-- Generator: Sketch 53.2 (72643) - https://sketchapp.com -->
    <title>ico black</title>
    <desc>Created with Sketch.</desc>
    <g id="Page-1" stroke="none" stroke-width="1" fill="none" fill-rule="evenodd">
        <g id="ico-black" fill="#000000">
            <path d="M11.9906462,24 C5.36328936,23.9948353 -0.00516093465,18.6180687 3.72332659e-06,11.9906885 C0.0051683813,5.36322362 5.381916,-0.0051609528 12.0093575,3.72339844e-06 C18.6330737,0.00508373277 24,5.37617764 24,12.0000019 C24,18.6273821 18.627401,24 11.9999595,24 L11.9906462,24 M11.9908242,1.50000413 C6.19186081,1.50509255 1.49491571,6.21021249 1.50000413,12.0091758 C1.50509255,17.8082226 6.21021249,22.5050843 12.0092593,22.4999959 C17.8082226,22.4949074 22.5050843,17.7897875 22.4999959,11.9908242 C22.4949909,6.19186081 17.7898709,1.49491571 11.9908242,1.50000413 L11.9908242,1.50000413 M12.0000397,19 C8.13401173,19 5,15.8659883 5,11.9999603 C5,8.13401173 8.13401173,5 12.0000397,5 C15.8660677,5 19,8.13401173 19,11.9999603 C19,15.8659883 15.8660677,19 12.0000397,19" id="Logo-Glyph"></path>
        </g>
    </g>
</svg>